<svg xmlns="http://www.w3.org/2000/svg" viewBox="0 0 500 500"><g id="freepik--background-simple--inject-19"><path d="M412.56,225.6c0,1.61,0,3.23-.05,4.85,0,.82,0,1.64-.07,2.46,0,.66,0,1.33-.07,2l0,.71c0,.74-.07,1.47-.11,2.21,0,.59-.06,1.18-.1,1.76S412,241,412,241.68s-.12,1.71-.19,2.56-.15,1.88-.24,2.82c-.15,1.58-.31,3.16-.49,4.74,0,.28-.06.57-.1.85-.19,1.62-.39,3.25-.62,4.87-.14,1.06-.29,2.11-.46,3.16-.11.76-.22,1.52-.35,2.29s-.28,1.76-.44,2.64c-.09.57-.19,1.15-.3,1.72-.14.77-.28,1.54-.43,2.31-.08.49-.18,1-.28,1.47-.15.81-.31,1.61-.48,2.41s-.31,1.52-.48,2.28c-.09.45-.19.9-.29,1.35-.18.79-.35,1.58-.54,2.37-.14.62-.29,1.24-.44,1.86-.2.87-.42,1.74-.64,2.61s-.38,1.52-.58,2.27q-2,7.5-4.38,14.88c-.26.79-.52,1.58-.79,2.36-.16.48-.32,1-.49,1.44-.24.68-.48,1.37-.73,2.06-.62,1.76-1.27,3.51-1.92,5.25-.32.82-.64,1.65-1,2.47-.56,1.42-1.13,2.84-1.72,4.25-.79,1.9-1.6,3.8-2.44,5.68-.36.82-.73,1.63-1.11,2.45s-.75,1.63-1.13,2.44c-.46,1-.93,1.95-1.4,2.92-.94,1.93-1.91,3.86-2.91,5.77s-2,3.8-3,5.68q-1.37,2.46-2.79,4.89c-.51.87-1,1.74-1.55,2.6-.33.56-.67,1.11-1,1.65l-1.32,2.12c-.54.86-1.08,1.71-1.63,2.55s-1.17,1.79-1.76,2.68-1.2,1.79-1.81,2.67l-1.68,2.42a1.77,1.77,0,0,0-.16.22q-1.86,2.61-3.79,5.18c-.64.86-1.29,1.71-1.94,2.55-23,29.67-53.16,53.18-89.11,65.62-44.87,15.52-95.63,15.47-140.79,1.12C102.82,430.82,69.48,414,55,385.09c-11.49-23-14.08-50.58-9.84-76.37.37-2.26.79-4.51,1.28-6.74s1-4.33,1.53-6.47c1-3.8,2.13-7.53,3.41-11.16.31-.86.62-1.72.94-2.57,5.73-15.23,14.27-30.63,25.76-42.31,12.76-13,30-21.4,44.51-32.46,17.18-13.11,26.26-35,35.88-53.81,19.44-37.93,41.31-90.29,87.62-100.82,29.25-6.65,58.74-3,84.66,11a119.5,119.5,0,0,1,12.78,7.92,2.4,2.4,0,0,1,.26.18c.59.41,1.17.83,1.74,1.27a5.34,5.34,0,0,1,.56.41c.51.37,1,.75,1.51,1.13a131.08,131.08,0,0,1,12.66,11.11c1.65,1.63,3.28,3.33,4.87,5.08a149.87,149.87,0,0,1,11.53,14.38l1,1.44c12.45,18,22.33,40.35,28.61,66.89q1.7,7.19,3.05,14.79,1,5.53,1.65,11.15h0c.14,1.08.26,2.17.38,3.26q.61,5.91.92,11.89Q412.57,219.93,412.56,225.6Z" style="fill:#FF725E"></path><path d="M412.56,225.6c0,1.61,0,3.23-.05,4.85,0,.82,0,1.64-.07,2.46,0,.66,0,1.33-.07,2l0,.71c0,.74-.07,1.47-.11,2.21,0,.59-.06,1.18-.1,1.76S412,241,412,241.68s-.12,1.71-.19,2.56-.15,1.88-.24,2.82c-.15,1.58-.31,3.16-.49,4.74,0,.28-.06.57-.1.85-.19,1.62-.39,3.25-.62,4.87-.14,1.06-.29,2.11-.46,3.16-.11.76-.22,1.52-.35,2.29s-.28,1.76-.44,2.64c-.09.57-.19,1.15-.3,1.72-.14.77-.28,1.54-.43,2.31-.08.49-.18,1-.28,1.47-.15.81-.31,1.61-.48,2.41s-.31,1.52-.48,2.28c-.09.45-.19.9-.29,1.35-.18.79-.35,1.58-.54,2.37-.14.62-.29,1.24-.44,1.86-.2.87-.42,1.74-.64,2.61s-.38,1.52-.58,2.27q-2,7.5-4.38,14.88c-.26.79-.52,1.58-.79,2.36-.16.48-.32,1-.49,1.44-.24.68-.48,1.37-.73,2.06-.62,1.76-1.27,3.51-1.92,5.25-.32.82-.64,1.65-1,2.47-.56,1.42-1.13,2.84-1.72,4.25-.79,1.9-1.6,3.8-2.44,5.68-.36.82-.73,1.63-1.11,2.45s-.75,1.63-1.13,2.44c-.46,1-.93,1.95-1.4,2.92-.94,1.93-1.91,3.86-2.91,5.77s-2,3.8-3,5.68q-1.37,2.46-2.79,4.89c-.51.87-1,1.74-1.55,2.6-.33.56-.67,1.11-1,1.65l-1.32,2.12c-.54.86-1.08,1.71-1.63,2.55s-1.17,1.79-1.76,2.68-1.2,1.79-1.81,2.67l-1.68,2.42a1.77,1.77,0,0,0-.16.22q-1.86,2.61-3.79,5.18c-.64.86-1.29,1.71-1.94,2.55-23,29.67-53.16,53.18-89.11,65.62-44.87,15.52-95.63,15.47-140.79,1.12C102.82,430.82,69.48,414,55,385.09c-11.49-23-14.08-50.58-9.84-76.37.37-2.26.79-4.51,1.28-6.74s1-4.33,1.53-6.47c1-3.8,2.13-7.53,3.41-11.16.31-.86.62-1.72.94-2.57,5.73-15.23,14.27-30.63,25.76-42.31,12.76-13,30-21.4,44.51-32.46,17.18-13.11,26.26-35,35.88-53.81,19.44-37.93,41.31-90.29,87.62-100.82,29.25-6.65,58.74-3,84.66,11a119.5,119.5,0,0,1,12.78,7.92,2.4,2.4,0,0,1,.26.18c.59.41,1.17.83,1.74,1.27a5.34,5.34,0,0,1,.56.41c.51.37,1,.75,1.51,1.13a131.08,131.08,0,0,1,12.66,11.11c1.65,1.63,3.28,3.33,4.87,5.08a149.87,149.87,0,0,1,11.53,14.38l1,1.44c12.45,18,22.33,40.35,28.61,66.89q1.7,7.19,3.05,14.79,1,5.53,1.65,11.15h0c.14,1.08.26,2.17.38,3.26q.61,5.91.92,11.89Q412.57,219.93,412.56,225.6Z" style="fill:#fff;opacity:0.7000000000000001"></path></g><g id="freepik--Landscape--inject-19"><path d="M298.17,73.5C301.38,76,305.61,84,305.62,84s-6.13,1.16-6.54,1.2c-4.61.28-13.66-1.9-15.55-6.7a6.11,6.11,0,0,1,3.68-7.82c.21-.07.42-.14.64-.19C291.36,69.51,295.43,71.41,298.17,73.5Z" style="fill:#FF725E"></path><path d="M344.59,143.38c.09.05-4.47,4.38-4.79,4.61-3.69,2.78-12.48,5.95-16.67,3a6.11,6.11,0,0,1-1.23-8.56,5,5,0,0,1,.42-.5c2.38-2.76,6.83-3.42,10.27-3.19C336.63,139,344.59,143.38,344.59,143.38Z" style="fill:#FF725E"></path><path d="M330.75,63.39a119.5,119.5,0,0,1,12.78,7.92,4.29,4.29,0,0,1-.9-.1C338.88,70.63,332.17,67.46,330.75,63.39Z" style="fill:#FF725E"></path><path d="M325.6,75.87c.1.28,2.66,7.57,2.31,11-.29,3-1.5,6.78-4.23,8.47a5.38,5.38,0,0,1-7.45-1.54c-.1-.16-.19-.32-.28-.49-2-4.09,2-11.23,5-14,.19-.18,2.76-2.13,4-3l-.11-.23a67.92,67.92,0,0,0-11.51,4.48c-2,1-3.95,2-5.77,3.09.61,1.31,3.33,7.31,3.37,10.47s-.73,6.9-3.26,8.87a5.39,5.39,0,0,1-7.58-.69,4.83,4.83,0,0,1-.34-.45c-2.43-3.86.8-11.39,3.4-14.49.11-.19,1.78-1.73,3-2.85-.82.49-1.69,1-2.44,1.48-2.9,1.81-5.49,3.67-7.71,5.33-1.27,1-2.4,1.85-3.43,2.67-.07,1.6-.44,8-1.83,10.79s-3.83,5.78-7,6.4a5.4,5.4,0,0,1-6.42-4.12c0-.18-.06-.36-.08-.54-.37-4.54,5.94-9.74,9.73-11.28.31-.14,5.62-1.66,5.61-1.57v.09c1-.83,2.09-1.69,3.25-2.64,2.22-1.72,4.74-3.63,7.65-5.51A95.15,95.15,0,0,1,313,79.89a70.5,70.5,0,0,1,11.51-4.77l.14,0c-1.32,0-5.05-.16-5.34-.2-4-.62-11.4-4.19-12.1-8.67a5.37,5.37,0,0,1,4.63-6,5.87,5.87,0,0,1,.59,0c3.2-.18,6.34,2.21,8.3,4.52C323,67.27,325,74.4,325.14,75a95.52,95.52,0,0,1,12.41-2.67c2.09-.29,4.18-.57,6.24-.8.59.41,1.17.83,1.74,1.27-2.64.21-5.28.47-7.86.8A98.82,98.82,0,0,0,325.6,75.87Z" style="fill:#FF725E"></path><path d="M342.35,76c.18-.17,2.43-1.88,3.74-2.84.51.37,1,.75,1.51,1.13.76,2.41,2,6.84,1.73,9.32-.29,3-1.49,6.77-4.23,8.45a5.38,5.38,0,0,1-7.45-1.54c-.1-.16-.2-.32-.28-.48C335.39,86,339.41,78.82,342.35,76Z" style="fill:#FF725E"></path><path d="M360.78,87.61a5.55,5.55,0,0,1-.52-2.2c1.65,1.63,3.28,3.33,4.87,5.08a5.32,5.32,0,0,1-4.06-2.38A5,5,0,0,1,360.78,87.61Z" style="fill:#FF725E"></path><path d="M380.92,128.1a5.39,5.39,0,0,1-7,2.9,5.6,5.6,0,0,1-.55-.27c-3.91-2.31-4.45-10.5-3.59-14.44.06-.29,1.46-4.28,1.87-5.27-2.44,1.9-4.84,3.82-7.13,5.81a97.52,97.52,0,0,0-8.79,8.58c.26.14,6.37,4.84,8,7.91,1.41,2.67,2.49,6.48,1.14,9.39a5.39,5.39,0,0,1-7.05,2.89,3.36,3.36,0,0,1-.54-.26c-3.91-2.31-4.45-10.5-3.58-14.44.05-.26,1.11-3.3,1.65-4.73l-.23-.13A69.45,69.45,0,0,0,348,136.12c-1.17,1.95-2.17,3.89-3.11,5.78,1.23.75,6.79,4.24,8.59,6.86s3.19,6.16,2.16,9.22a5.39,5.39,0,0,1-6.7,3.61c-.18-.06-.36-.12-.54-.2-4.13-1.87-5.61-9.93-5.15-14,0-.19.42-1.92.77-3.42.05-.2.09-.4.14-.59-.14.28-.27.57-.41.86h0c-.27.57-.55,1.15-.8,1.71-1.41,3.13-2.52,6.08-3.48,8.7-.54,1.49-1,2.87-1.4,4.14.82,1.36,4.07,6.92,4.44,10s0,6.94-2.32,9.16a5.37,5.37,0,0,1-7.6.13l-.4-.42c-2.8-3.57-.4-11.41,1.87-14.77.17-.3,3.72-4.41,3.82-4.41l.07,0c.37-1.24.78-2.56,1.26-4,.91-2.65,2-5.61,3.3-8.81.06-.15.13-.31.2-.46.33-.8.68-1.59,1-2.38q1.65-3.66,3.62-7.18a71.13,71.13,0,0,1,6.93-10.36s.05-.08.07-.13c-1.12.73-4.31,2.65-4.57,2.77-3.68,1.7-11.81,2.8-14.87-.55a5.37,5.37,0,0,1,.54-7.59,3.64,3.64,0,0,1,.45-.35c2.58-1.92,6.52-1.65,9.43-.8,3.28,1,8.9,5.78,9.35,6.16a96.24,96.24,0,0,1,8.87-9.08c1.83-1.66,3.73-3.27,5.65-4.86-1,.59-1.87,1.12-2,1.17-3.68,1.7-11.8,2.8-14.88-.55a5.38,5.38,0,0,1,.53-7.58,5.32,5.32,0,0,1,.47-.36c2.57-1.92,6.51-1.65,9.42-.8s7.82,4.87,9.1,6c.75-.6,1.48-1.22,2.22-1.81l2.61-2.1,1,1.44-2.54,1.94-3.3,2.59c.48.37,6.33,4.87,7.95,7.87C381.19,121.39,382.26,125.19,380.92,128.1Z" style="fill:#FF725E"></path><path d="M82.73,271.81c0,.05,3.12-2.26,3.31-2.42,2.07-1.95,4.92-6.93,3.56-9.81a3.76,3.76,0,0,0-5.06-1.66,2.6,2.6,0,0,0-.36.21c-1.92,1.16-2.79,3.79-3,5.9C80.91,266.52,82.73,271.81,82.73,271.81Z" style="fill:#FF725E"></path><path d="M48.82,304.07A3.32,3.32,0,0,1,47,308.38a4.26,4.26,0,0,1-1.81.34c.37-2.26.79-4.51,1.28-6.74a4.43,4.43,0,0,1,2.23,1.77Z" style="fill:#FF725E"></path><path d="M104.17,272.78c-1.59,1.17-4,1-5.81.44s-4.86-3.1-5.61-3.74c-.82.11-1.7.24-2.66.41-1.7.3-3.63.67-5.65,1.2l-1.1.3-.61.17.42,0c.94-.08,2-.13,2.12-.12,2.48.11,7.22,1.87,7.93,4.57l.06.33a3.32,3.32,0,0,1-2.9,3.7c-2,.31-4-.93-5.37-2.28s-3-5.11-3.26-6c-1.25.37-2.53.78-3.83,1.28a42.41,42.41,0,0,0-6.81,3.48l0,.15c1-.19,2.89-.5,3-.51,2.49-.14,7.4,1.08,8.39,3.67,0,.11.07.23.1.34a3.32,3.32,0,0,1-2.48,4c-1.92.49-4.12-.56-5.6-1.71-1.7-1.33-3.91-5.52-4-5.69a56.94,56.94,0,0,0-6.14,4.43c-1.46,1.17-2.87,2.43-4.28,3.71.64-.15,3.2-.57,3.39-.58,2.49-.14,7.4,1.08,8.39,3.67a3.37,3.37,0,0,1,.1.34,3.31,3.31,0,0,1-2.48,4c-1.92.48-4.12-.57-5.59-1.71-1.69-1.31-3.77-5.32-4-5.66-.65.57-1.29,1.16-1.92,1.75-2.09,1.91-4.16,3.83-6.27,5.67-.73.64-1.47,1.24-2.22,1.84,1-.18,2.76-.47,2.91-.48,2.5-.14,7.4,1.08,8.39,3.67,0,.11.07.23.1.34a3.32,3.32,0,0,1-2.47,4c-1.92.48-4.12-.59-5.6-1.71s-3.33-4.5-3.83-5.45l-1.2.94c1-3.8,2.13-7.53,3.41-11.16.74,2.42-.54,6.24-1.76,8,0,.06-.38.47-.8.95.79-.61,1.56-1.2,2.31-1.83,2.13-1.77,4.24-3.64,6.36-5.51l1.34-1.16c-.52-.89-2.44-4.27-2.66-6.16s0-4.3,1.47-5.66a2.16,2.16,0,0,1,.27-.25,3.3,3.3,0,0,1,4.65.48c1.72,2.21.2,7-1.22,9.09a13.79,13.79,0,0,0-.93,1.06c1.17-1,2.35-2,3.55-2.91A56.77,56.77,0,0,1,70.39,276c-.18-.31-2.51-4.21-2.76-6.33-.22-1.88,0-4.3,1.47-5.66l.27-.25a3.32,3.32,0,0,1,4.66.48c1.7,2.18.19,7-1.22,9.09-.11.15-1.64,1.89-2.16,2.48l.07,0a44.2,44.2,0,0,1,7-3.14c1.58-.56,3.19-1,4.81-1.46l1.69-.41.1,0c2.07-.5,4-.82,5.7-1.08.93-.15,1.77-.25,2.56-.35l0-.05s2.9-1.75,3.1-1.82c2.29-1,7.3-1.63,9.18.45l.21.28A3.32,3.32,0,0,1,104.17,272.78Z" style="fill:#FF725E"></path><path d="M411.56,247.06A248.41,248.41,0,0,1,389,329.54L133.55,229.76Z" style="fill:#FF725E"></path><path d="M412.56,225.6c0,1.61,0,3.23-.05,4.85,0,.82,0,1.64-.07,2.46,0,.66,0,1.33-.07,2l0,.71c0,.74-.07,1.47-.11,2.21,0,.59-.06,1.18-.1,1.76S412,241,412,241.68s-.12,1.71-.19,2.56-.15,1.88-.24,2.82c-.15,1.58-.31,3.16-.49,4.74l-9.44-.18L369.42,251l-26-.47-41.28-.76-41-.75c-.07-2.46.35-7.12,3.15-14.11A6.1,6.1,0,0,1,266,232.3h0c4.16-3.06,9.3,12.91,9.59,13.83a.06.06,0,0,0,0,0,.18.18,0,0,1,0,0c0-.05,0-.13.05-.24l.07-.25c.39-1.12,1.93-4.14,7.94-10.33,2.26-2.32,4.4-2.82,6.31-2.33a8.33,8.33,0,0,1,3.54,2.09,23.85,23.85,0,0,1,4.71,6.77c0-.46-.5-6.16-.49-12.66,0-9.77,1.1-21.36,6.34-19.72,3.19,1,5,5.48,6.07,10.82,1.86,9.54,1.2,21.83,1.2,21.83a82.52,82.52,0,0,1,3.59-9.25c2.76-6,6.87-12.59,11.5-12.5,4,.07,6.46,3.62,8,7.37a37,37,0,0,1,2.21,8.55s.47-5.05,1.67-10.87c1.6-7.82,4.52-17,9.34-17.26a6.21,6.21,0,0,1,3.87,1.37c7.07,5,13.5,22,13.5,22s-1.42-21.81,3-30c.89-1.64,2-2.73,3.42-3,8.43-1.42,11.33,11.74,11.33,11.74s8.14-43.39,22.2-37.88a6.8,6.8,0,0,1,1.36.72q1.7,7.19,3.05,14.79,1,5.53,1.65,11.15h0c.14,1.08.26,2.17.38,3.26q.61,5.91.92,11.89Q412.57,219.93,412.56,225.6Z" style="fill:#FF725E"></path><path d="M289.88,240.64c.15-.24,1.58-2.56,3.64-5.58,1.23-1.81,2.69-3.87,4.22-5.89,3.61-4.74,7.67-9.25,10.32-9.68a2.44,2.44,0,0,1,2.09.78c2.15,2,3.74,7.53,4.79,12.58s1.61,9.87,1.61,9.87,3.44-15.67,6.06-15.62,6.13,9,6.13,9a21.16,21.16,0,0,1,5.69-8.41,12.87,12.87,0,0,1,3.88-2.32,11.64,11.64,0,0,1,2.18-.59c8.42-1.42,15.47,14.44,15.47,14.44s-4-16.29-4.44-29.74c-.26-9,1.1-16.69,6.36-17.43,4.14-.59,7.47,3.56,10.09,9.51,5.68,12.92,8,34.35,8,34.35a34.85,34.85,0,0,1,2.87-12c2.74-6.24,14,10.75,14,10.75s3.11-35,17.83-32.43a6.86,6.86,0,0,1,.73.16" style="fill:none;stroke:#263238;stroke-linecap:round;stroke-linejoin:round"></path><path d="M289.87,240.66h0A22.4,22.4,0,0,0,290,233c-.46-2.26-1.6-4.19-4.08-4.44-5.64-.57-9.45,14.08-10.17,17.1l-.07.25c0,.11,0,.19-.05.24a.18.18,0,0,0,0,0s-4.92-10.65-9.6-13.87h0c-1.31-.89-2.6-1.21-3.76-.54-5.3,3.05-3,19.88-3,19.88" style="fill:none;stroke:#263238;stroke-linecap:round;stroke-linejoin:round"></path><line x1="407.06" y1="229.17" x2="401.38" y2="252.67" style="fill:none;stroke:#263238;stroke-linecap:round;stroke-linejoin:round"></line><line x1="367.06" y1="236.31" x2="369.42" y2="251.03" style="fill:none;stroke:#263238;stroke-linecap:round;stroke-linejoin:round"></line><line x1="306.71" y1="237.82" x2="301.75" y2="250.85" style="fill:none;stroke:#263238;stroke-linecap:round;stroke-linejoin:round"></line><line x1="338.14" y1="240.5" x2="343.71" y2="251.09" style="fill:none;stroke:#263238;stroke-linecap:round;stroke-linejoin:round"></line><line x1="399.1" y1="234.27" x2="403.14" y2="242.74" style="fill:none;stroke:#263238;stroke-linecap:round;stroke-linejoin:round"></line><line x1="373.31" y1="239.04" x2="369.51" y2="246.31" style="fill:none;stroke:#263238;stroke-linecap:round;stroke-linejoin:round"></line><line x1="343.9" y1="240.61" x2="341.2" y2="245.28" style="fill:none;stroke:#263238;stroke-linecap:round;stroke-linejoin:round"></line><line x1="302.49" y1="238.79" x2="303.97" y2="244.07" style="fill:none;stroke:#263238;stroke-linecap:round;stroke-linejoin:round"></line><path d="M412.56,225.6c0,1.61,0,3.23-.05,4.85,0,.82,0,1.64-.07,2.46,0,.66,0,1.33-.07,2l0,.71c0,.74-.07,1.47-.11,2.21,0,.59-.06,1.18-.1,1.76S412,241,412,241.68s-.12,1.71-.19,2.56-.15,1.88-.24,2.82c-.15,1.58-.31,3.16-.49,4.74l-9.44-.18L369.42,251l-26-.47-41.28-.76-41-.75c-.07-2.46.35-7.12,3.15-14.11A6.1,6.1,0,0,1,266,232.3h0c4.16-3.06,9.3,12.91,9.59,13.83a.06.06,0,0,0,0,0,.18.18,0,0,1,0,0c0-.05,0-.13.05-.24l.07-.25c.39-1.12,1.93-4.14,7.94-10.33,2.26-2.32,4.4-2.82,6.31-2.33a8.33,8.33,0,0,1,3.54,2.09,23.85,23.85,0,0,1,4.71,6.77c0-.46-.5-6.16-.49-12.66,0-9.77,1.1-21.36,6.34-19.72,3.19,1,5,5.48,6.07,10.82,1.86,9.54,1.2,21.83,1.2,21.83a82.52,82.52,0,0,1,3.59-9.25c2.76-6,6.87-12.59,11.5-12.5,4,.07,6.46,3.62,8,7.37a37,37,0,0,1,2.21,8.55s.47-5.05,1.67-10.87c1.6-7.82,4.52-17,9.34-17.26a6.21,6.21,0,0,1,3.87,1.37c7.07,5,13.5,22,13.5,22s-1.42-21.81,3-30c.89-1.64,2-2.73,3.42-3,8.43-1.42,11.33,11.74,11.33,11.74s8.14-43.39,22.2-37.88a6.8,6.8,0,0,1,1.36.72q1.7,7.19,3.05,14.79,1,5.53,1.65,11.15h0c.14,1.08.26,2.17.38,3.26q.61,5.91.92,11.89Q412.57,219.93,412.56,225.6Z" style="opacity:0.1"></path></g><g id="freepik--speed-lines--inject-19"><line x1="101.26" y1="368.71" x2="68.05" y2="355.63" style="fill:none;stroke:#263238;stroke-linecap:round;stroke-linejoin:round"></line><line x1="97.68" y1="359.7" x2="57.09" y2="343.71" style="fill:none;stroke:#263238;stroke-linecap:round;stroke-linejoin:round"></line><line x1="167.19" y1="352.97" x2="80.28" y2="318.75" style="fill:none;stroke:#263238;stroke-linecap:round;stroke-linejoin:round"></line></g><g id="freepik--Floor--inject-19"><line x1="311.44" y1="316.14" x2="117.28" y2="232.89" style="fill:none;stroke:#263238;stroke-linecap:round;stroke-linejoin:round"></line><line x1="386.74" y1="348.42" x2="326.86" y2="322.75" style="fill:none;stroke:#263238;stroke-linecap:round;stroke-linejoin:round"></line><line x1="101.26" y1="245" x2="390.67" y2="368.71" style="fill:none;stroke:#263238;stroke-linecap:round;stroke-linejoin:round"></line><line x1="377.29" y1="436.2" x2="317.42" y2="410.53" style="fill:none;stroke:#263238;stroke-linecap:round;stroke-linejoin:round"></line></g><g id="freepik--Clouds--inject-19"><path d="M49.22,93.46h110.7s-3-2.19-5.7-3.94-7,0-9.21,0-2.23-2.62-7-5.68-10.06,1.71-14,.87-1.76-7-6.55-10.06-6.13,1.76-10.94-1.31,0-15.76-17.93-15.36S69.77,70.67,69.77,70.67C56.65,76.35,63.21,82,61.46,84.22s-3.94,0-8.74,2.63S49.22,93.46,49.22,93.46Z" style="fill:none;stroke:#263238;stroke-miterlimit:10"></path><path d="M456,145.46c-4-2.2-5.87-.37-7.34-2.2s4-6.61-7-11.38c0,0-.73-10.31-15.78-10.65s-11,10.32-15.05,12.89-5.15-1.47-9.18,1.1-2.2,7.74-5.5,8.44-7.73-3.3-11.74-.73-4,4.77-5.88,4.77-5.5-1.47-7.73,0-4.78,3.31-4.78,3.31h92.88S460,147.66,456,145.46Z" style="fill:none;stroke:#263238;stroke-miterlimit:10"></path></g><g id="freepik--Character--inject-19"><path d="M250.06,180c0,.55,6.75,18.4,9.25,21.61s4.12,6.38,19.73,6.95,13.52-1.76,14.94-5.37-22.21-11.74-22.21-11.74a61.76,61.76,0,0,1-6.25-20C264.14,160.25,250.06,180,250.06,180Z" style="fill:#fff"></path><path d="M173.63,379.86C170,372.94,162.4,369.67,156,372l-9,3.05,1.59,4.53a16,16,0,0,0,1,12.8,16.38,16.38,0,0,0,6.49,6.74l2.72,4.64s9-3.3,9.89-3.78C175.31,396.54,177.51,387.3,173.63,379.86Z" style="fill:#263238"></path><ellipse cx="154" cy="388.94" rx="13.57" ry="15.2" transform="translate(-162.28 115.15) rotate(-27.52)" style="fill:#fff;stroke:#263238;stroke-linecap:round;stroke-linejoin:round"></ellipse><path d="M158.88,386.82c1.37,3.15.3,6.66-2.39,7.83s-6-.43-7.36-3.58-.31-6.66,2.39-7.83S157.51,383.67,158.88,386.82Z" style="fill:#fff;stroke:#263238;stroke-linecap:round;stroke-linejoin:round"></path><polygon points="190.07 374.5 287.44 401.71 265.27 417.57 160.73 389.08 190.07 374.5" style="fill:#fff;stroke:#263238;stroke-linecap:round;stroke-linejoin:round"></polygon><path d="M247.33,392a1.65,1.65,0,0,1,0,.49c-.93,4.3-8.13,6.38-14.16,5.25S217,393.15,213,393.24s-11.25,1.17-14.41-4.8a7.12,7.12,0,0,1-.62-4.62c.82-5.13,5.57-10.94,6.81-15.8,1.65-6.4,14.13,3.24,14.13,3.24s.85,5,7,8.15C231.9,382.45,247.06,387.75,247.33,392Z" style="fill:#FF725E"></path><path d="M110.8,372.05c.41,6.05,3.37,30-1.71,33.41a4.89,4.89,0,0,1-1.82.76,2.78,2.78,0,0,1-.37,0l-.24,0h-.09c-4.25.12-8.32-5.85-10.16-8.51-2.22-3.2-6.35-8.39-6.72-12.87s.78-9.68.18-13.29A75,75,0,0,1,89.15,358c.22-2.57,4-7.66,7.16-9.56a9.89,9.89,0,0,1,1.06-.59c3-1.43,15.34,9.34,15.34,9.34S110.38,366,110.8,372.05Z" style="fill:#FF725E"></path><path d="M247.33,392a1.65,1.65,0,0,1,0,.49c-.93,4.3-8.13,6.38-14.16,5.25S217,393.15,213,393.24s-11.25,1.17-14.41-4.8a7.12,7.12,0,0,1-.62-4.62c1.62,1.81,4.28,4.37,6.93,5.26,4.26,1.44,13,1.24,16.27,3C224.21,393.63,239.63,395.73,247.33,392Z" style="fill:#fff"></path><path d="M270.06,168.16a19.12,19.12,0,0,1-1,3.21h0c-4.82,12-19.22,13-19.22,13L243,169.56s-2.8,3.17-1.28,9.37a26.74,26.74,0,0,1,0,13.21c-1,3.58-8.2,9.45-9.43,21.62-.9,8.83-15.06,22.17-15.06,22.17a70.09,70.09,0,0,1-19.31-2.54c-15.91-4.55-22.21-13.65-22.21-13.65l1.54-24.21c-14.38-3.07-19.43-4.84-19.43-4.84s6.77-25.16,11.2-37.1,21.26-14,21.26-14,33.09-3.69,40.75-6.85a7.4,7.4,0,0,0,.73-.33c6-3.23,8.69,3.56,14.34,7.51,5.27,3.7,21.55,25,23.74,27.92Z" style="fill:#FF725E"></path><path d="M107.27,406.22a2.78,2.78,0,0,1-.37,0l-.24,0h-.09c-4.25.12-8.32-5.85-10.16-8.51-2.22-3.2-6.35-8.39-6.72-12.87s.78-9.68.18-13.29a79.46,79.46,0,0,1-.62-14.11c.22-2.58,4-7.2,7.06-9.1l1.37,2.42s-4.27,4.47-3.79,9.81,0,15.05,0,21.27,9.32,19.79,17.28,19.79C111.14,401.71,109.61,405.73,107.27,406.22Z" style="fill:#fff"></path><path d="M269.82,167.84c-.06.5-.13,1-.23,1.49a18,18,0,0,1-.53,2h0c-4.82,12-19.22,13-19.22,13L243,169.56s-2.8,3.17-1.28,9.37a26.74,26.74,0,0,1,0,13.21c-1,3.58-8.2,9.45-9.43,21.62-.9,8.83-15.06,22.17-15.06,22.17a70.09,70.09,0,0,1-19.31-2.54c1.13-4.32,3.67-8.22,5.59-12.3,2.25-4.77,3.61-10.63.89-15.16-1.65-2.77-4.84-5.46-3.76-8.51,4.76,1,9.6,2,14.45,1.61s9.79-2.41,12.61-6.37a47.65,47.65,0,0,0,8.2-27,29.36,29.36,0,0,0-4.57-16.1c-3.27-4.81-5.41-10.29-1.43-15.6a9.52,9.52,0,0,1,1.13-1.25,7.4,7.4,0,0,0,.73-.33c6-3.23,8.69,3.56,14.34,7.51C251.35,143.62,267.63,165,269.82,167.84Z" style="opacity:0.2"></path><path d="M223.73,80.43s9.88,22.93,13.68,34.44-13.68,21.25-13.68,21.25l11.45-2.21s-.22,15.44-11.45,19.56-26.87-5.64-33.66-15.11l6.66-15s-11.32-32.67,0-40.47S223.73,80.43,223.73,80.43Z" style="fill:#fff"></path><path d="M234.4,104c-3.18.4-4.45-16.51-8.8-18.48-4.11-1.87-12.87-.87-20.7,1.66l-1.43.48s-8.34,1.88-7.79,8.41,7,21.43,1.44,26a5.53,5.53,0,0,1-3.35,1.29A7.91,7.91,0,0,1,191,123c-5.35-1.7-11.52-8.75-14.42-19-4.14-14.57,3.18-36,26.87-38.15l.3,0c23.46-2,30.24,16.42,31.14,21.8S240.09,103.3,234.4,104Z" style="fill:#FF725E"></path><path d="M328.89,415.9c-5.09-9.76-15.84-14.37-24.86-11l-12.73,4.3,2.24,6.39a22.44,22.44,0,0,0,1.4,18,23,23,0,0,0,9.16,9.51l3.83,6.54s12.64-4.64,13.95-5.33C331.26,439.43,334.36,426.41,328.89,415.9Z" style="fill:#263238"></path><ellipse cx="301.21" cy="428.72" rx="19.14" ry="21.44" transform="translate(-164 187.66) rotate(-27.52)" style="fill:#fff;stroke:#263238;stroke-linecap:round;stroke-linejoin:round"></ellipse><path d="M308.08,425.72c1.94,4.45.43,9.39-3.37,11s-8.44-.61-10.38-5-.43-9.39,3.37-11.05S306.15,421.28,308.08,425.72Z" style="fill:#fff;stroke:#263238;stroke-linecap:round;stroke-linejoin:round"></path><path d="M211.89,105.93s-5-2.4-8.41,1.11C203.48,107,205.58,99.42,211.89,105.93Z" style="fill:#263238"></path><path d="M222.17,102.34s-1-8,5.39-5.91C227.56,96.43,223,98.18,222.17,102.34Z" style="fill:#263238"></path><path d="M177.24,195.54l-19.73-3.86s-5.39,13.77-3.06,24.77c0,0,18.46,4.78,26.73,6.76s16.43.12,27.18-2.91,17.71-5.83,19.77-4.51-.65,3.15,2,3.47,4.59-2.81,3.7-9.68-6.51-7.76-12.47-7.06-8.22,5.78-17,4.56-20.1-4.76-26.7-4.56Z" style="fill:#fff"></path><path d="M212.91,114.7s8.06,5.15,15.79.45c0,0-2.47,6.49-7.39,6.94S212.91,114.7,212.91,114.7Z" style="fill:#fff;stroke:#263238;stroke-linecap:round;stroke-linejoin:round"></path><path d="M218.22,92.35s2.67-5.77,7.74-2.81" style="fill:none;stroke:#263238;stroke-linecap:round;stroke-linejoin:round"></path><path d="M208.37,97s-6.47-1.68-9,3.1" style="fill:none;stroke:#263238;stroke-linecap:round;stroke-linejoin:round"></path><path d="M203.48,87.66s-8.34,1.89-7.8,8.41,7,21.43,1.44,26S180.74,118.62,176.6,104s3.18-36,26.88-38.16S234,82.26,234.91,87.66s3.78,13.28,1.62,15.64-4.61-15.46-9-17.44S211.64,84.78,203.48,87.66Z" style="fill:none;stroke:#263238;stroke-linecap:round;stroke-linejoin:round"></path><path d="M191,123c4.18-1.74,5.33-5,4.75-9.46-.78-6.11-4-11.74-3.36-18.06C193,89.94,202.5,88,202.5,88" style="fill:none;stroke:#263238;stroke-linecap:round;stroke-linejoin:round"></path><path d="M225.39,85.21a39.39,39.39,0,0,1,4.9,9.91c1.39,4.87,1.36,8.69,5.4,8" style="fill:none;stroke:#263238;stroke-linecap:round;stroke-linejoin:round"></path><path d="M190.35,106.51c1.14,3.55.28,7-1.92,7.69s-4.89-1.6-6-5.15-.28-7,1.92-7.69S189.22,103,190.35,106.51Z" style="fill:none;stroke:#263238;stroke-linecap:round;stroke-linejoin:round"></path><path d="M197.83,121.37s3.92,8.5,3,14.75c-.22,1.48-7.79,4.29-9,4.8-9.74,4.28-22.42,7.12-24.68,19.41-2.59,14.08-15.88,40.66-12.74,56.12,0,0,18.39,6.07,31.42,7.51s34.3-9,40.59-7.51" style="fill:none;stroke:#263238;stroke-linecap:round;stroke-linejoin:round"></path><path d="M208.37,127.48s8.72,6.43,17.59,4.59c5.26-1.09,7.28-3.57,8.39-8.67a34.55,34.55,0,0,0-1.11-19Q230.62,97,228,89.52" style="fill:none;stroke:#263238;stroke-linecap:round;stroke-linejoin:round"></path><path d="M191.87,140.92s15.08,16.47,28,13.84,15.28-18.64,15.28-18.64" style="fill:none;stroke:#263238;stroke-linecap:round;stroke-linejoin:round"></path><path d="M222.11,132.39s0,5.19,1.4,5.83,12.76-6.06,20.57,0c7.15,5.54,20.61,23.07,26,29.94" style="fill:none;stroke:#263238;stroke-linecap:round;stroke-linejoin:round"></path><path d="M111.62,359.81c1.5-.71,1.3-3,2.11-4.48,7.49-13.39,19.14-26.54,30.73-36.52s26.75-18.21,31.32-34c3.53-12.23,12.23-23.65,12.23-23.65,4.08,12.51,22,37.52,22,37.52-7.34,18.48-5.44,47.84-4.35,55.73s-3.53,17.67-3.53,17.67c7.59,8.67,18.48,3,18.48,3-2.17-5.71.28-13.87,3.81-29.09s20.12-35.34,16.58-51.38S217.92,235,217.92,235s-23,2.84-33.44-11.24l-18.91-4c-14.14,6.79-24.86,38.93-25.4,50.35s-6.53,25.83-6.53,25.83C113,306.8,106.73,326.38,104.28,334s-11.42,16.85-11.42,16.85S99.33,365.67,111.62,359.81Z" style="fill:#263238"></path><path d="M244.69,166.34s-6,6.09-3.18,12.59c4.07,9.34-2.12,17.67-4.1,20.31" style="fill:none;stroke:#263238;stroke-linecap:round;stroke-linejoin:round"></path><path d="M242.79,168.86s4.53,9.48,6.87,15.55c0,0,18.1-1.64,20.4-16.25" style="fill:none;stroke:#263238;stroke-linecap:round;stroke-linejoin:round"></path><path d="M217.92,235s8.84-7.36,12.2-15.77" style="fill:none;stroke:#263238;stroke-linecap:round;stroke-linejoin:round"></path><path d="M113.73,352.79s-3.87,14.61-2.72,23.64,2.5,26.14-1.92,29S97,400.07,92,390.85s-1.35-13.65-2.12-19.23S86.61,356,93.42,350.84" style="fill:none;stroke:#263238;stroke-linecap:round;stroke-linejoin:round"></path><path d="M111.32,401.35s-3.19,2-8.38-3.39-9-11.15-8.85-18.65.76-10.57,0-16.34.77-8.45,2.31-10.18" style="fill:none;stroke:#263238;stroke-linecap:round;stroke-linejoin:round"></path><path d="M157.81,190.69s14.29,6,27.47,5l2.2-20.34" style="fill:none;stroke:#263238;stroke-linecap:round;stroke-linejoin:round"></path><path d="M186.92,186.15a27.11,27.11,0,0,1,6.3-8.66" style="fill:none;stroke:#263238;stroke-linecap:round;stroke-linejoin:round"></path><path d="M230.12,153.59a17.56,17.56,0,0,0,2.87-3.65" style="fill:none;stroke:#263238;stroke-linecap:round;stroke-linejoin:round"></path><path d="M213.52,158.89a23.44,23.44,0,0,0,12.95-2.58" style="fill:none;stroke:#263238;stroke-linecap:round;stroke-linejoin:round"></path><path d="M219.32,373.14a27.87,27.87,0,0,0,10.05,8.19c6.18,2.79,18.23,7.89,17.92,11.13s-8,6.18-15.45,5.1-14.37-4.64-20.24-4.33-10.66,0-13-4.79,4.45-13.16,4.32-16.39" style="fill:none;stroke:#263238;stroke-linecap:round;stroke-linejoin:round"></path><path d="M198.43,383.92a16.21,16.21,0,0,0,5.74,5.08c1.8,1,3.72.87,5.69,1,6,.44,11.66,2.17,17.5,3.52,6,1.38,17.55.77,19.94-2" style="fill:none;stroke:#263238;stroke-linecap:round;stroke-linejoin:round"></path><path d="M182.1,114.87c-1.79,4.53-6,11.65-11.11,15.62-6.71,5.21-15.45,7.89-20.79,14.5-4.85,6-6,14.51-4,22s6.82,13.94,12.61,19.05c0,0,4.76-12.49,6.12-17.19s3.38-16.47,10-20.07S196.8,139.57,201,137s-3.2-15.59-3.2-15.59S190.61,127.06,182.1,114.87Z" style="fill:#263238"></path><path d="M236.12,103c3.31,8.66,9.59,15.78,14.79,23.46s9.54,16.74,8.13,25.9a4.28,4.28,0,0,1-.66,1.95S246.52,138.84,242,136.93s-15.56,0-18.49,1.29a23.35,23.35,0,0,1-1.4-5.46s4.71-.12,8-2.22,5.84-7.3,5.06-16.41S232.74,103,232.74,103Z" style="fill:#263238"></path><path d="M217.87,100.17c.29,1.17.62,2.32,1,3.46a4.21,4.21,0,0,0,1.8,2.62c.69.34,1.54.29,2.18.72a2.09,2.09,0,0,1,.88,1.85,3.21,3.21,0,0,1-.85,1.93" style="fill:none;stroke:#263238;stroke-linecap:round;stroke-linejoin:round"></path><path d="M301,394.25,259.07,210.07l12.39-3,41.45,182S314.4,399.07,301,394.25Z" style="fill:#263238"></path><path d="M283.75,318.53S291.6,320.72,296,315" style="fill:none;stroke:#263238;stroke-linecap:round;stroke-linejoin:round"></path><path d="M288,335s7,3.15,11.42-2.62" style="fill:none;stroke:#263238;stroke-linecap:round;stroke-linejoin:round"></path><polygon points="160.73 389.08 160.73 394.25 265.35 423.36 287.17 407.97 287.44 401.71 265.27 417.57 160.73 389.08" style="fill:#263238"></polygon><path d="M182.13,378.44s-3.17-13.11-13.79-15.63-19,1.38-25.44,7.82l3.36,1.42s8.61-4.17,15-.79a24.27,24.27,0,0,1,10.82,12.18Z" style="fill:#263238"></path><path d="M239.23,200.37a13.24,13.24,0,0,1,5.46-1.24c2.59.05,5.19-1.58,6.11.11s-7.18,5.25-10.13,5.11" style="fill:#fff;stroke:#263238;stroke-linecap:round;stroke-linejoin:round"></path><path d="M177.05,202.52a51.72,51.72,0,0,1,1.14-6.87" style="fill:none;stroke:#263238;stroke-linecap:round;stroke-linejoin:round"></path><path d="M196.73,197.07c-.23-.25,13.36,6,23.26,1.4" style="fill:none;stroke:#263238;stroke-linecap:round;stroke-linejoin:round"></path><path d="M229.55,211.82c.71,2.81-.11,5.43-1.81,5.86s-3.67-1.49-4.38-4.3.11-5.43,1.81-5.86S228.84,209,229.55,211.82Z" style="fill:#263238"></path><path d="M302.07,194.87c.71,2.81-.1,5.43-1.81,5.86s-3.66-1.49-4.37-4.3.1-5.43,1.81-5.86S301.37,192.07,302.07,194.87Z" style="fill:#263238"></path><polygon points="233.97 215.79 300.26 200.73 297.7 190.57 229.55 206.5 233.97 215.79" style="fill:#263238"></polygon><path d="M291.81,189.76s2-1.89,3.85-1.76,4.28,13.33,3.32,15.22-3.32.91-3.32.91" style="fill:#fff;stroke:#263238;stroke-linecap:round;stroke-linejoin:round"></path><path d="M313,390.27s11.57-2.75,23,12.89L322.56,412s-20.83-20.81-47.7,4.2l.66-6.43,23.91-19.48S307.78,397.79,313,390.27Z" style="fill:#263238"></path><path d="M196.19,99.21s17.59-2,18.12-14c0,0-11.47.66-14.38,3.48S194.73,93.18,196.19,99.21Z" style="fill:#263238"></path><path d="M286.11,191.26s.26-3.19,2.66-3,7.37,9.77,6.86,14.25-4.37,2.9-4.37,2.9" style="fill:#fff;stroke:#263238;stroke-linecap:round;stroke-linejoin:round"></path><path d="M280.4,194.61s.31-4.08,2.19-4.76,5.83,3,8.06,7.21.86,9.95-.85,10-2.24-6.54-3.69-8.46S280.4,194.61,280.4,194.61Z" style="fill:#fff;stroke:#263238;stroke-linecap:round;stroke-linejoin:round"></path><path d="M233,200.37s4.77-2.68,6.24,0,3.78,12.15,1.48,14.27-5,0-5,0" style="fill:#fff;stroke:#263238;stroke-linecap:round;stroke-linejoin:round"></path><path d="M222.11,202.52s7.16-4.14,9.45-3.28,4.08,5.93,5.06,8.71-.07,7.35-2.65,7.84" style="fill:#fff;stroke:#263238;stroke-linecap:round;stroke-linejoin:round"></path><path d="M167.19,208.77s5.24-7.56,15.93-5.74,21.43,6.76,30.4,2.73,12.4-3.28,15.18-3c3.22.31,4.39,2.3,5.12,6.83.63,3.9-.76,10-3.7,9.68s.34-5.44-1.42-8.49-4.37-3.56-6.59-2.78" style="fill:none;stroke:#263238;stroke-linecap:round;stroke-linejoin:round"></path><path d="M251.72,184.41s5.81,15.66,9.28,19.72,23.8,4.81,23.8,4.81,6.08.36,9.18-3.52" style="fill:none;stroke:#263238;stroke-linecap:round;stroke-linejoin:round"></path><path d="M266.4,176.28s1.39,10.47,5.37,15.17l8.63,3.16" style="fill:none;stroke:#263238;stroke-linecap:round;stroke-linejoin:round"></path><path d="M186.27,123.4a45.76,45.76,0,0,1-19.08,20.07c-13.77,7.43-12.83,21-5.83,26.9" style="fill:none;stroke:#fff;stroke-linecap:round;stroke-linejoin:round;opacity:0.5"></path><path d="M237.39,117.29c1.67,6.57,5.92,12.14,9.93,17.61,2,2.68,3.94,5.52,4.48,8.8" style="fill:none;stroke:#fff;stroke-linecap:round;stroke-linejoin:round;opacity:0.5"></path><path d="M184.48,261.13a50.13,50.13,0,0,1,17.67-4.89" style="fill:none;stroke:#fff;stroke-linecap:round;stroke-linejoin:round"></path><path d="M235.84,103.51a3.23,3.23,0,0,1-1.44.49c-3.18.4-4.45-16.51-8.8-18.48a8.84,8.84,0,0,0-1.86-.59c-4.86-1.07-13.12.2-20.27,2.73,0,0-8.34,1.88-7.79,8.41s7,21.43,1.44,26a5.53,5.53,0,0,1-3.35,1.29c-17.34-12.91-7.39-38.19-7.39-38.19,14.09-4.71,16.89-16.31,17.39-19.34,23.46-2,30.24,16.42,31.14,21.8C235.71,92.52,239.25,101.28,235.84,103.51Z" style="opacity:0.2"></path><path d="M195.68,96.07c.54,6.53,7,21.43,1.44,26a5.53,5.53,0,0,1-3.35,1.29A7.91,7.91,0,0,1,191,123c1.6-.88,5-3.22,4.71-7.14-.32-5.11-4.15-15.57-3.42-19.78s6.26-7.77,11.16-9.14a1.43,1.43,0,0,1,1.43.25l-1.43.48S195.13,89.54,195.68,96.07Z" style="opacity:0.2"></path><path d="M235.84,103.51a3.23,3.23,0,0,1-1.44.49c-3.18.4-4.45-16.51-8.8-18.48a8.84,8.84,0,0,0-1.86-.59c.25-.06,3.74-.62,6.8,4.92C233.25,94.76,233.31,100,235.84,103.51Z" style="opacity:0.2"></path><path d="M252.05,417.57l40.5-60.39,9.89,35.88-37.09,30.3Z" style="fill:#263238"></path><path d="M296.12,404.41s-1.39,27,5.09,28.39,6.21-28.39,6.21-28.39S303.91,401.9,296.12,404.41Z" style="fill:#263238"></path><path d="M153.14,370.1s-4,19.49.86,20.82,7.26-19.66,7.26-19.66A10.2,10.2,0,0,0,153.14,370.1Z" style="fill:#263238"></path></g></svg>